<?xml version="1.0" encoding="UTF-8" standalone="no"?>
<!-- Created with Inkscape (http://www.inkscape.org/) -->

<svg
   version="1.1"
   id="svg2"
   width="312"
   height="92"
   viewBox="0 0 312 92"
   xmlns="http://www.w3.org/2000/svg"
   xmlns:svg="http://www.w3.org/2000/svg">
  <defs
     id="defs6" />
  <g
     id="g8">
    <path
       style="fill:#000000;stroke-width:1.33333"
       d="m 17.832593,78.927503 c -1.6572,-1.079763 -4.49926,-24.436055 -4.49926,-36.975292 0,-8.003379 0.214239,-8.629923 3,-8.773546 2.25756,-0.116386 2.422547,-0.305573 0.666667,-0.764433 -3.142068,-0.821108 -2.948004,-2.464423 1.108445,-9.386229 4.320879,-7.373022 3.620004,-9.807504 -2.535928,-8.808534 -5.149353,0.835626 -7.4067063,-1.206122 -4.802594,-4.3438851 1.108221,-1.3353244 3.490724,-1.8738766 7.114786,-1.6082602 8.072615,0.5916616 8.960631,4.4154953 6.744448,29.0418763 -0.955722,10.62006 -1.452849,19.77006 -1.104728,20.333333 0.348123,0.563274 2.437392,1.024134 4.642823,1.024134 3.587797,0 3.965465,0.38595 3.587977,3.666666 -0.387332,3.366275 -0.831522,3.630816 -5.421896,3.229062 -2.75,-0.240683 -5.059688,0.05932 -5.132641,0.666666 -0.07295,0.60735 -0.36984,3.75116 -0.659751,6.986246 -0.598545,6.679117 -0.746241,6.990624 -2.708348,5.712196 z M 232.02756,78.033201 c -1.29275,-1.55765 -1.50705,-4.877981 -0.83499,-12.936545 0.49726,-5.962584 1.21776,-11.348571 1.60112,-11.968859 1.39751,-2.261202 7.0154,-1.163114 7.87298,1.53887 0.59289,1.868053 2.01737,2.666666 4.75652,2.666666 2.84284,0 3.90457,0.636903 3.88973,2.333334 -0.0335,3.824758 -1.96801,5.742074 -5.40799,5.35983 C 240.89265,64.691779 240.62015,65.178439 240,72 c -0.56,6.160013 -1.112,7.396961 -3.45001,7.731009 -1.53083,0.218722 -3.56594,-0.545292 -4.52243,-1.697808 z M 55.026297,67.003655 C 39.007613,66.627693 37.255269,66.345493 35.964639,63.933927 c -2.267079,-4.236075 -0.41754,-5.26726 9.447384,-5.26726 h 9.254644 v -6.434248 c 0,-5.139242 -0.670892,-7.064519 -3.333334,-9.565752 -4.187742,-3.93418 -4.204805,-6.034182 -0.07104,-8.742731 2.821819,-1.848927 3.766964,-1.89282 7,-0.32508 3.687427,1.78808 3.73605,1.969233 3.6148,13.467547 -0.13913,13.194097 -0.08256,13.256342 11.456236,12.605406 5.4247,-0.306021 6.043147,-0.03332 6.44999,2.844071 0.474698,3.357268 -1.769216,5.625692 -5.116652,5.172541 -1.1,-0.148909 -9.938166,-0.457054 -19.64037,-0.684766 z m 128.565933,-0.08857 c -2.79094,-0.230042 -5.38,-1.214566 -5.75348,-2.18783 -0.55658,-1.450415 -1.38036,-1.419715 -4.56746,0.170217 -3.23854,1.615604 -8.18205,1.758411 -29.57984,0.854497 L 118,64.666667 l -0.42463,-4.424827 -0.42464,-4.424828 13.40706,0.331291 c 17.90054,0.442326 18.91654,-0.79639 6.44217,-7.854342 -7.75179,-4.385932 -13.4473,-9.564125 -17.18851,-15.627294 -3.26539,-5.292051 -3.12355,-6.848955 0.86189,-9.460316 4.81683,-3.156104 7.58102,-0.599959 6.52084,6.030042 -0.74493,4.658526 -0.37786,5.29947 6.78326,11.844323 8.82153,8.062395 11.35589,8.684149 11.35589,2.785951 0,-2.95158 1.34371,-5.47704 4.69979,-8.833123 4.34799,-4.347989 5.18116,-4.653536 11.13055,-4.081876 3.53692,0.339853 8.0146,1.764759 9.95041,3.166457 4.28652,3.103818 6.73435,11.095843 5.65208,18.453739 -0.71343,4.850292 -0.44824,5.589196 2.49116,6.941099 2.36749,1.088865 3.42616,1.103258 3.7768,0.05135 0.26796,-0.803888 2.23388,-1.484721 4.36872,-1.512962 2.83157,-0.03745 3.99439,-0.772676 4.29877,-2.718015 1.27595,-8.154487 4.74971,-14.324647 9.08436,-16.135779 6.96566,-2.910434 10.77883,-2.298938 16.1057,2.582768 4.22846,3.875098 4.93202,5.405914 5.47085,11.903502 0.5548,6.690161 0.26009,7.81477 -2.86745,10.94232 -3.36735,3.367342 -3.95043,3.472576 -17.15711,3.096497 -7.51921,-0.214119 -15.95479,-0.577524 -18.74573,-0.807565 z M 166.36999,55.257728 c 4.01421,-2.81166 4.19097,-12.696767 0.29668,-16.591061 -6.49822,-6.498216 -17.33334,-0.749068 -17.33334,9.197121 0,6.197939 3.45487,9.469545 10,9.469545 2.24032,0 5.40683,-0.934022 7.03666,-2.075605 z m 47.93557,-6.729951 c -0.44307,-0.443054 -1.59307,-0.490424 -2.55556,-0.105266 -1.06364,0.425634 -0.74771,0.741577 0.80556,0.805556 1.40555,0.05789 2.19305,-0.257238 1.75,-0.700294 z M 83.148835,64.666667 c -1.256958,-3.275582 0.549964,-6 3.979392,-6 4.487712,0 6.503766,-3.011532 5.983174,-8.937515 -0.40098,-4.56442 -0.112466,-5.101245 2.932547,-5.456457 4.261342,-0.4971 8.914322,4.259228 9.515952,9.727305 0.28687,2.607293 1.48463,4.45826 3.4401,5.316171 1.83952,0.807041 3,2.48329 3,4.333333 0,2.943 -0.34515,3.017163 -14.041847,3.017163 -11.251653,0 -14.194346,-0.397411 -14.809318,-2 z M 254.20864,63.351503 c -2.5112,-2.511212 -2.86881,-5.452778 -0.81707,-6.720832 0.76538,-0.473023 10.00372,-0.812336 20.52967,-0.75403 16.74197,0.09273 19.52001,-0.203249 22.18853,-2.364082 7.59096,-6.14679 -3.77722,-17.39118 -17.66738,-17.474999 -8.39795,-0.05068 -10.2191,0.847023 -12.42403,6.124153 -2.2572,5.402234 -4.87173,5.716604 -8.55891,1.029123 -2.09102,-2.658308 -2.41809,-4.066276 -1.39057,-5.9862 3.21053,-5.998936 14.91401,-8.886939 25.97903,-6.410697 C 296.01045,33.918621 304,42.118465 304,53.323861 c 0,10.49159 -1.7342,11.260355 -26.59519,11.789546 -18.14812,0.386301 -21.28633,0.147933 -23.19617,-1.761904 z M 234.22223,44.444444 c -3.6395,-3.639491 2.23408,-9.688012 6.42906,-6.620561 1.94126,1.419472 2.08194,2.227064 0.80395,4.615004 -1.4886,2.781478 -5.37851,3.860065 -7.23301,2.005557 z"
       id="path48" />
  </g>
</svg>
